<?xml version="1.0" encoding="iso-8859-1"?>
<!-- Uploaded to: SVG Repo, www.svgrepo.com, Generator: SVG Repo Mixer Tools -->
<svg fill="#000000" height="800px" width="800px" version="1.1" id="Layer_1" xmlns="http://www.w3.org/2000/svg" xmlns:xlink="http://www.w3.org/1999/xlink" 
	 viewBox="0 0 503.607 503.607" xml:space="preserve">
<g transform="translate(1 1)">
	<g>
		<g>
			<path d="M474.908,223.105c-1.679-12.59-11.751-22.662-25.18-22.662h-21.823l10.911-21.823c1.679-2.518,1.679-5.875,0-8.393
				c-1.679-2.518-5.036-4.197-7.554-4.197h-0.293c-4.644-76.062-66.225-137.386-142.396-141.61v-8.633h16.787
				c5.036,0,8.393-3.357,8.393-8.393c0-4.197-3.357-8.393-8.393-8.393H255c-5.036,0-8.393,3.357-8.393,8.393
				c0,4.197,3.357,8.393,8.393,8.393h16.787v8.633c-76.17,4.224-137.752,65.548-142.396,141.61h-0.293
				c-3.357,0-5.875,1.679-7.554,4.197c-0.839,2.518-1.679,5.875,0,8.393l10.911,21.823h-21.823c-13.43,0-24.341,10.072-25.18,22.662
				l-6.084,61.272H52.214l-15.444-77.22c-0.348-2.088-1.423-3.735-2.855-4.897c-0.018-0.014-0.034-0.029-0.052-0.044
				c-2.017-1.61-4.73-2.261-7.165-1.774H11.59c-5.036,0-8.393,3.357-8.393,8.393s3.357,8.393,8.393,8.393h9.736l15.444,77.22
				c0.283,1.415,0.858,2.633,1.648,3.634c1.193,1.581,2.98,2.626,5.187,2.959c0.047,0.008,0.096,0.012,0.144,0.019
				c0.195,0.026,0.39,0.053,0.591,0.068c0.271,0.022,0.545,0.035,0.823,0.035h1.679h30.859L61.951,459.8
				c0,2.518,0.839,5.036,2.518,6.715c0.839,1.679,3.357,2.518,5.875,2.518h18.14c-0.875,2.609-1.353,5.427-1.353,8.393
				c0,14.269,10.911,25.18,25.18,25.18c14.269,0,25.18-10.911,25.18-25.18c0-2.967-0.478-5.785-1.353-8.393h288.084
				c-0.875,2.609-1.353,5.427-1.353,8.393c0,14.269,10.911,25.18,25.18,25.18s25.18-10.911,25.18-25.18
				c0-2.967-0.478-5.785-1.353-8.393h18.14c2.518,0,5.036-0.839,5.875-2.518c1.679-1.679,2.518-4.197,2.518-6.715L474.908,223.105z
				 M280.18,40.967c71.06,0,129.623,54.959,134.235,125.062h-268.46C151.39,95.926,209.12,40.967,280.18,40.967z M142.528,183.656
				h275.305l-8.393,16.787H150.921L142.528,183.656z M112.312,485.82c-5.036,0-8.393-3.357-8.393-8.393
				c0-5.036,3.357-8.393,8.393-8.393c5.036,0,8.393,3.357,8.393,8.393C120.705,482.462,117.348,485.82,112.312,485.82z
				 M456.443,477.426c0,5.036-3.357,8.393-8.393,8.393c-5.036,0-8.393-3.357-8.393-8.393c0-5.036,3.357-8.393,8.393-8.393
				C453.085,469.033,456.443,472.39,456.443,477.426z M438.711,452.246l-15.843-126.741c-0.839-5.036-4.197-8.393-9.233-7.554
				c-5.036,0.839-8.393,5.036-7.554,9.233l15.633,125.062h-58.072l-7.921-126.741c-0.839-4.197-5.036-7.554-9.233-7.554
				c-4.197,0.839-7.554,4.197-7.554,9.233l7.816,125.062h-58.177V326.344c0-5.036-3.357-8.393-8.393-8.393
				c-5.036,0-8.393,3.357-8.393,8.393v125.902H213.61l7.816-125.062c0.839-5.036-2.518-9.233-7.554-9.233
				c-5.036-0.839-9.233,2.518-9.233,7.554l-7.921,126.741h-58.072l15.633-125.062c0-4.197-3.357-8.393-7.554-9.233
				c-4.197,0-8.393,3.357-9.233,7.554l-15.843,126.741H79.577L95.219,295.25c0.197-0.77,0.306-1.598,0.306-2.48
				c0-0.141-0.012-0.276-0.017-0.415l6.732-67.572c0.839-4.197,4.197-7.554,8.393-7.554h35.252h268.59h35.253
				c4.197,0,8.393,3.357,8.393,7.554l22.662,227.462H438.711z"/>
			<path d="M280.18,57.754c-51.2,0-95.685,32.734-111.633,81.416c-1.679,5.036,0.839,9.233,5.036,10.911c0.839,0,1.679,0,2.518,0
				c4.197,0,7.554-2.518,8.393-5.875c13.43-41.967,52.039-69.666,95.685-69.666c5.036,0,8.393-3.357,8.393-8.393
				S285.216,57.754,280.18,57.754z"/>
		</g>
	</g>
</g>
</svg>